PathFileType	4	(X/Y/Z)	output.trc
DataRate	CameraRate	NumFrames	NumMarkers	Units	OrigDataRate	OrigDataStartFrame	OrigNumFrames
128	128	12	47	mm	128	1	1000
Frame#	Time	C7			LSHO			RSHO			CLAV			T10			LUPA			RELB			LELB			LFRA			RFRA			RWRB			RWRA			RFIN			LWRB			LWRA			LFIN			RASI			LASI			RPSI			LPSI			RANK			LANK			LMMA			LHEE			LTOE			RMMA			RHEE			RTOE			RMT5			LMT5			RKNE			LKNE			LMFC			RMFC			RFM2			LFM2			RTP2			RTP3			RTA3			LTP2			LTP3			LTA3			LBHD			RBHD			RFHD			RGTR			LGTR			
		X1	Y1	Z1	X2	Y2	Z2	X3	Y3	Z3	X4	Y4	Z4	X5	Y5	Z5	X6	Y6	Z6	X7	Y7	Z7	X8	Y8	Z8	X9	Y9	Z9	X10	Y10	Z10	X11	Y11	Z11	X12	Y12	Z12	X13	Y13	Z13	X14	Y14	Z14	X15	Y15	Z15	X16	Y16	Z16	X17	Y17	Z17	X18	Y18	Z18	X19	Y19	Z19	X20	Y20	Z20	X21	Y21	Z21	X22	Y22	Z22	X23	Y23	Z23	X24	Y24	Z24	X25	Y25	Z25	X26	Y26	Z26	X27	Y27	Z27	X28	Y28	Z28	X29	Y29	Z29	X30	Y30	Z30	X31	Y31	Z31	X32	Y32	Z32	X33	Y33	Z33	X34	Y34	Z34	X35	Y35	Z35	X36	Y36	Z36	X37	Y37	Z37	X38	Y38	Z38	X39	Y39	Z39	X40	Y40	Z40	X41	Y41	Z41	X42	Y42	Z42	X43	Y43	Z43	X44	Y44	Z44	X45	Y45	Z45	X46	Y46	Z46	X47	Y47	Z47	

1	0.00000	1545.71839	1523.46733	1521.76161	1464.91691	1265.34698	1403.92155	1128.12442	1132.81094	1035.76329	1034.08956	881.04245	901.03113	818.50066	895.44329	896.51545	803.56589	1043.34428	1042.81235	1122.29447	1127.38982	65.71598	67.05572	80.10713	26.93956	39.19321	52.61568	22.96873	35.15894	26.21695	25.26906	507.89580	516.07256	516.75863	526.46245	603.34017	647.04355	273.49236	325.46685	299.54705	289.93105	353.72265	310.26507	1430.31578	1830.31578	1460.31578	1430.31578	1830.31578	1600.31578	1630.31578	1830.31578	1600.31578	881.04245	895.44329	
2	0.00781	1545.72778	1523.54795	1521.78818	1464.91954	1265.34081	1404.08847	1128.14511	1132.84633	1035.76671	1034.05446	880.92501	900.85971	818.00962	895.46076	896.60603	803.52655	1043.38914	1042.76016	1122.31334	1127.38818	65.73785	67.05662	80.12847	26.97035	39.18692	52.37996	23.25971	35.12237	26.20707	25.27263	507.83151	516.09096	516.74349	526.52127	603.38378	647.05037	273.44491	325.51796	299.48956	289.94466	353.72396	310.34821	1430.35464	1830.35464	1460.35464	1430.35464	1830.35464	1600.35464	1630.35464	1830.35464	1600.35464	880.92501	895.46076	
3	0.01562	1545.73696	1523.54364	1521.77978	1464.92132	1265.36409	1403.99849	1128.11923	1132.85640	1035.74963	1034.00432	880.77464	900.67496	817.53616	895.48278	896.61364	803.50954	1043.37589	1042.76582	1122.33171	1127.41070	65.72290	67.07237	80.11061	26.93907	39.21211	52.38223	23.30577	35.18590	26.25214	25.26282	507.88837	516.04792	516.75360	526.47776	603.40722	647.06546	273.46582	325.50831	299.50397	289.89845	353.70874	310.29771	1430.35346	1830.35346	1460.35346	1430.35346	1830.35346	1600.35346	1630.35346	1830.35346	1600.35346	880.77464	895.48278	
4	0.02344	1545.75453	1523.15724	1521.20639	1465.06785	1265.04340	1404.37765	1128.15058	1132.85245	1035.73033	1033.98808	880.76350	900.50102	817.03441	895.48141	896.67333	803.44599	1043.38028	1042.84066	1122.29085	1127.44173	65.87820	67.07663	80.18478	26.96484	39.19486	52.38889	23.30686	35.21082	26.23694	25.27136	507.75708	516.16551	516.75133	526.47940	602.71124	647.09066	273.13983	325.31350	299.49360	289.92244	353.74105	310.09228	1430.03939	1830.03939	1460.03939	1430.03939	1830.03939	1600.03939	1630.03939	1830.03939	1600.03939	880.76350	895.48141	
5	0.03125	1545.82247	1523.29151	1521.25019	1464.98780	1265.05047	1404.61563	1127.97028	1132.83846	1035.82523	1033.73541	880.56864	900.25663	816.35556	895.42884	896.71747	803.27740	1043.37912	1042.96852	1122.27009	1127.28456	65.82965	67.04481	80.19084	27.01837	39.02264	52.48982	23.26676	35.27786	26.17768	25.33873	508.04796	516.10007	516.66649	526.39670	602.62845	647.17060	273.04362	325.16282	299.39342	289.77149	353.72671	310.15817	1430.12139	1830.12139	1460.12139	1430.12139	1830.12139	1600.12139	1630.12139	1830.12139	1600.12139	880.56864	895.42884	
6	0.03906	1545.82015	1523.28115	1521.22644	1464.96549	1265.05590	1404.49439	1127.96779	1132.84311	1035.70291	1033.68991	880.37520	900.04220	815.66281	895.37915	896.58456	803.14548	1043.34129	1042.83432	1122.24136	1127.23532	65.83538	67.04518	80.20585	27.01091	39.01224	52.49754	23.29046	35.25832	26.18060	25.36151	507.96679	516.11451	516.67875	526.37974	602.66384	647.02957	273.00818	325.15290	299.37410	289.72793	353.61334	309.94616	1430.10925	1830.10925	1460.10925	1430.10925	1830.10925	1600.10925	1630.10925	1830.10925	1600.10925	880.37520	895.37915	
7	0.04688	1545.81037	1523.30034	1521.13880	1464.93280	1265.06450	1404.53856	1127.91408	1132.85787	1035.72540	1033.56363	880.22099	899.80352	815.10704	895.39272	896.59595	803.09043	1043.31261	1042.79659	1122.25007	1127.21993	65.83931	67.04496	80.14254	27.02621	38.98219	52.51486	23.30681	35.28638	26.19473	25.35223	507.98791	516.10346	516.63944	526.37769	602.63902	646.97861	273.01586	325.12490	299.29983	289.77437	353.61827	309.93030	1430.08317	1830.08317	1460.08317	1430.08317	1830.08317	1600.08317	1630.08317	1830.08317	1600.08317	880.22099	895.39272	
8	0.05469	1545.82674	1523.32574	1521.16713	1464.89814	1265.09199	1404.48535	1127.85905	1132.86729	1035.66146	1033.48169	880.04111	899.58864	814.40710	895.39088	896.56800	802.93516	1043.34437	1042.79672	1122.23316	1127.21114	65.85926	67.06056	80.14482	27.01626	38.97888	52.49864	23.30181	35.31217	26.24267	25.36514	508.03547	516.10343	516.63505	526.36836	602.62532	646.94556	272.96273	325.09305	299.22894	289.72848	353.56746	309.98108	1430.10654	1830.10654	1460.10654	1430.10654	1830.10654	1600.10654	1630.10654	1830.10654	1600.10654	880.04111	895.39088	
9	0.06250	1545.81390	1523.30074	1521.12979	1464.92156	1265.06102	1404.47614	1127.83425	1132.87470	1035.65383	1033.40304	879.86077	899.32559	813.83001	895.37873	896.56755	802.80829	1043.34875	1042.79251	1122.21584	1127.24789	65.86342	67.06555	80.14831	27.06492	38.94419	52.48187	23.28337	35.26538	26.23924	25.33140	508.04660	516.08374	516.65907	526.34862	602.59371	646.96168	272.94507	325.03633	299.18764	289.68521	353.53359	309.89351	1430.08148	1830.08148	1460.08148	1430.08148	1830.08148	1600.08148	1630.08148	1830.08148	1600.08148	879.86077	895.37873	
10	0.07031	1545.80166	1523.30869	1521.10925	1464.83703	1265.05920	1404.48578	1127.80856	1132.84863	1035.67160	1033.28931	879.67951	899.06830	813.14327	895.36150	896.52202	802.64458	1043.31744	1042.79969	1122.18700	1127.18675	65.87463	67.07018	80.14202	26.98926	38.96747	52.47548	23.30119	35.23146	26.16365	25.31984	507.96481	516.06547	516.64367	526.30041	602.58861	646.98913	272.92893	325.02078	299.18804	289.65095	353.54122	309.86315	1430.07320	1830.07320	1460.07320	1430.07320	1830.07320	1600.07320	1630.07320	1830.07320	1600.07320	879.67951	895.36150	
11	0.07812	1545.76559	1523.33648	1521.12612	1464.82941	1265.00013	1404.50755	1127.80672	1132.85196	1035.64948	1033.16264	879.49563	898.82399	812.53826	895.40330	896.50304	802.49021	1043.31861	1042.76816	1122.14645	1127.17113	65.85154	67.03977	80.10072	27.01222	38.94990	52.48136	23.27490	35.20404	26.24134	25.33228	507.98467	516.08529	516.61007	526.31361	602.61163	646.96331	272.91011	324.97019	299.13251	289.67277	353.52447	309.96093	1430.07606	1830.07606	1460.07606	1430.07606	1830.07606	1600.07606	1630.07606	1830.07606	1600.07606	879.49563	895.40330	
12	0.08594	1545.81425	1523.29137	1521.06214	1464.82120	1264.93582	1404.49976	1127.77944	1132.81102	1035.63628	1033.08923	879.30956	898.54646	811.83092	895.38642	896.49844	802.36397	1043.33745	1042.81627	1122.11892	1127.10881	65.85845	67.05497	80.11353	27.03641	38.96339	52.47965	23.28374	35.21765	26.23485	25.32068	507.97869	516.07963	516.63789	526.28357	602.61349	646.98559	272.86799	324.96685	299.10101	289.62129	353.53041	309.92321	1430.05592	1830.05592	1460.05592	1430.05592	1830.05592	1600.05592	1630.05592	1830.05592	1600.05592	879.30956	895.38642	
